<svg xmlns="http://www.w3.org/2000/svg" viewBox="0 0 48 48"><defs><style>.cls-1{fill:#FFFFFF}</style></defs><g id="Layer_2" data-name="Layer 2"><g id="layer_1-2" data-name="layer 1"><path class="cls-1" transform="rotate(-42.59 42.101 5.49)" d="M35.47 4.49h13.28v2H35.47z"/><path class="cls-1" d="m20.24 17.76-1.79-.89 4.66-9.32a1 1 0 0 1 1.23-.49l8.18 3-.68 1.87-7.34-2.69zM1.88 30.47l-1.76-.94 8-15a1 1 0 0 1 .6-.49 1 1 0 0 1 .77.09l6.37 3.54-1 1.75-5.46-3.05zM48 9h-2V2h-7V0h8a1 1 0 0 1 1 1z"/><path class="cls-1" d="M35 16a4 4 0 1 1 4-4 4 4 0 0 1-4 4zm0-6a2 2 0 1 0 2 2 2 2 0 0 0-2-2zM18 24a4 4 0 1 1 4-4 4 4 0 0 1-4 4zm0-6a2 2 0 1 0 2 2 2 2 0 0 0-2-2zM19 46h12v2H19zM36 46h12v2H36zM0 46h12v2H0zM17 42h12v2H17zM35 42h12v2H35zM1 42h12v2H1zM19 38h12v2H19zM36 38h12v2H36zM0 38h12v2H0zM0 34h12v2H0zM18 34h12v2H18zM34 34h12v2H34zM17 30h12v2H17zM18 26h12v2H18zM35 30h12v2H35zM35 26h12v2H35zM36 22h12v2H36zM35 18h12v2H35z"/></g></g></svg>