<svg xmlns="http://www.w3.org/2000/svg" viewBox="0 0 512 512"><rect x="86.706" y="86.705" width="338.589" height="338.589" rx="25.459" transform="rotate(-45 256 256)" style="fill:#ffb14a"/><rect x="125.133" y="125.132" width="261.735" height="261.735" rx="17.684" transform="rotate(-45 256 256)" style="fill:#fff"/><path d="m241.81 135.876-52.755 165.686h133.891L270.19 135.876c-4.404-13.832-23.976-13.832-28.38 0z" style="fill:#ffb14a"/><path d="M338.353 331.016H173.647V316.97a15.407 15.407 0 0 1 15.408-15.408h133.891a15.407 15.407 0 0 1 15.407 15.408zM219.553 205.78l67.246-17.741-9.496-29.823-46.513 12.271-11.237 35.293zM194.746 283.688l113.015-29.815-9.496-29.823-92.282 24.346-11.237 35.292z" style="fill:#53737f"/><path d="M481.532 233.882 278.118 30.466a31.318 31.318 0 0 0-44.235 0L30.469 233.882a31.312 31.312 0 0 0 0 44.235l203.414 203.414a31.314 31.314 0 0 0 44.235 0l203.416-203.414a31.317 31.317 0 0 0-.002-44.235zm-8.23 36L269.887 473.3a19.64 19.64 0 0 1-27.774 0L38.7 269.887c-7.608-7.312-7.626-20.463 0-27.775L242.113 38.7a19.662 19.662 0 0 1 27.774 0L473.3 242.112a19.666 19.666 0 0 1 0 27.775z" style="fill:#333"/><path d="M412.167 218.863c-5.579-5.321-13.512 2.743-8.23 8.23l20.518 20.517a11.867 11.867 0 0 1 0 16.779L264.39 424.454a11.867 11.867 0 0 1-16.779 0L87.546 264.389a11.925 11.925 0 0 1 0-16.779L247.611 87.545a11.865 11.865 0 0 1 16.779 0l96.574 96.574a5.819 5.819 0 1 0 8.23-8.23L272.62 79.315a23.5 23.5 0 0 0-33.239 0L79.315 239.38c-9.107 8.748-9.125 24.491 0 33.239l160.066 160.065a23.5 23.5 0 0 0 33.239 0l160.065-160.065c9.111-8.749 9.124-24.49 0-33.239z" style="fill:#333"/><path d="M383.667 206.821c6.368 5.638 14.027-3.785 7.36-9.1-6.368-5.637-14.027 3.786-7.36 9.1zM313.309 252.111l-9.5-29.83c-5.2-16.209-15.663-49.291-20.808-65.348l-7.267-22.823a20.712 20.712 0 0 0-39.471 0l-11.017 34.6c-6.6 20.721-33.51 105.25-40.6 127.5a21.262 21.262 0 0 0-16.824 20.762v14.046a5.82 5.82 0 0 0 5.82 5.82h164.712a5.82 5.82 0 0 0 5.82-5.82V316.97a21.262 21.262 0 0 0-16.824-20.762zm-65.952-114.469a9.05 9.05 0 0 1 17.287 0l5.256 16.507-30.348 8.006zm-11.99 37.658 38.07-10.043 5.959 18.715-51.082 13.478zm-11.238 35.292 58.8-15.514 7.93 24.906-76.118 20.083zm-13.569 42.615 83.84-22.118 5.96 18.717-76.643 20.221a5.82 5.82 0 1 0 2.97 11.254l77.209-20.37 11.09 34.831h-117.97zm121.973 63.763v8.23H179.468v-8.23a9.6 9.6 0 0 1 9.587-9.587h133.9a9.6 9.6 0 0 1 9.578 9.587z" style="fill:#333"/></svg>